<svg width="609" height="203" viewBox="0 0 609 203" fill="none" xmlns="http://www.w3.org/2000/svg">
<path d="M73.72 87.56C75.16 85.2133 77.0267 83.3733 79.32 82.04C81.6667 80.7067 84.3333 80.04 87.32 80.04V91.8H84.36C80.84 91.8 78.1733 92.6267 76.36 94.28C74.6 95.9333 73.72 98.8133 73.72 102.92V125H62.52V80.68H73.72V87.56ZM136.064 101.88C136.064 103.48 135.957 104.92 135.744 106.2H103.344C103.61 109.4 104.73 111.907 106.704 113.72C108.677 115.533 111.104 116.44 113.984 116.44C118.144 116.44 121.104 114.653 122.864 111.08H134.944C133.664 115.347 131.21 118.867 127.584 121.64C123.957 124.36 119.504 125.72 114.224 125.72C109.957 125.72 106.117 124.787 102.704 122.92C99.3438 121 96.7038 118.307 94.7838 114.84C92.9171 111.373 91.9837 107.373 91.9837 102.84C91.9837 98.2533 92.9171 94.2267 94.7838 90.76C96.6504 87.2933 99.2638 84.6267 102.624 82.76C105.984 80.8933 109.85 79.96 114.224 79.96C118.437 79.96 122.197 80.8667 125.504 82.68C128.864 84.4933 131.45 87.08 133.264 90.44C135.13 93.7467 136.064 97.56 136.064 101.88ZM124.464 98.68C124.41 95.8 123.37 93.5067 121.344 91.8C119.317 90.04 116.837 89.16 113.904 89.16C111.13 89.16 108.784 90.0133 106.864 91.72C104.997 93.3733 103.85 95.6933 103.424 98.68H124.464ZM199.279 80.04C204.719 80.04 209.092 81.72 212.399 85.08C215.759 88.3867 217.439 93.0267 217.439 99V125H206.239V100.52C206.239 97.0533 205.359 94.4133 203.599 92.6C201.839 90.7333 199.439 89.8 196.399 89.8C193.359 89.8 190.932 90.7333 189.119 92.6C187.359 94.4133 186.479 97.0533 186.479 100.52V125H175.279V100.52C175.279 97.0533 174.399 94.4133 172.639 92.6C170.879 90.7333 168.479 89.8 165.439 89.8C162.345 89.8 159.892 90.7333 158.079 92.6C156.319 94.4133 155.439 97.0533 155.439 100.52V125H144.239V80.68H155.439V86.04C156.879 84.1733 158.719 82.7067 160.959 81.64C163.252 80.5733 165.759 80.04 168.479 80.04C171.945 80.04 175.039 80.7867 177.759 82.28C180.479 83.72 182.585 85.8 184.079 88.52C185.519 85.96 187.599 83.9067 190.319 82.36C193.092 80.8133 196.079 80.04 199.279 80.04ZM247.747 125.72C243.48 125.72 239.64 124.787 236.227 122.92C232.814 121 230.12 118.307 228.147 114.84C226.227 111.373 225.267 107.373 225.267 102.84C225.267 98.3067 226.254 94.3067 228.227 90.84C230.254 87.3733 233 84.7067 236.467 82.84C239.934 80.92 243.8 79.96 248.067 79.96C252.334 79.96 256.2 80.92 259.667 82.84C263.134 84.7067 265.854 87.3733 267.827 90.84C269.854 94.3067 270.867 98.3067 270.867 102.84C270.867 107.373 269.827 111.373 267.747 114.84C265.72 118.307 262.947 121 259.427 122.92C255.96 124.787 252.067 125.72 247.747 125.72ZM247.747 115.96C249.774 115.96 251.667 115.48 253.427 114.52C255.24 113.507 256.68 112.013 257.747 110.04C258.814 108.067 259.347 105.667 259.347 102.84C259.347 98.6267 258.227 95.4 255.987 93.16C253.8 90.8667 251.107 89.72 247.907 89.72C244.707 89.72 242.014 90.8667 239.827 93.16C237.694 95.4 236.627 98.6267 236.627 102.84C236.627 107.053 237.667 110.307 239.747 112.6C241.88 114.84 244.547 115.96 247.747 115.96ZM292.123 89.88V111.32C292.123 112.813 292.469 113.907 293.163 114.6C293.909 115.24 295.136 115.56 296.843 115.56H302.043V125H295.003C285.563 125 280.843 120.413 280.843 111.24V89.88H275.563V80.68H280.843V69.72H292.123V80.68H302.043V89.88H292.123ZM351.298 101.88C351.298 103.48 351.191 104.92 350.978 106.2H318.578C318.845 109.4 319.965 111.907 321.938 113.72C323.911 115.533 326.338 116.44 329.218 116.44C333.378 116.44 336.338 114.653 338.098 111.08H350.178C348.898 115.347 346.445 118.867 342.818 121.64C339.191 124.36 334.738 125.72 329.458 125.72C325.191 125.72 321.351 124.787 317.938 122.92C314.578 121 311.938 118.307 310.018 114.84C308.151 111.373 307.218 107.373 307.218 102.84C307.218 98.2533 308.151 94.2267 310.018 90.76C311.885 87.2933 314.498 84.6267 317.858 82.76C321.218 80.8933 325.085 79.96 329.458 79.96C333.671 79.96 337.431 80.8667 340.738 82.68C344.098 84.4933 346.685 87.08 348.498 90.44C350.365 93.7467 351.298 97.56 351.298 101.88ZM339.698 98.68C339.645 95.8 338.605 93.5067 336.578 91.8C334.551 90.04 332.071 89.16 329.138 89.16C326.365 89.16 324.018 90.0133 322.098 91.72C320.231 93.3733 319.085 95.6933 318.658 98.68H339.698ZM409.473 128.2V138.84H362.513V128.2H409.473Z" fill="#4353FF"/>
<path d="M477.716 80.04C483.156 80.04 487.53 81.72 490.836 85.08C494.196 88.3867 495.876 93.0267 495.876 99V125H484.676V100.52C484.676 97.0533 483.796 94.4133 482.036 92.6C480.276 90.7333 477.876 89.8 474.836 89.8C471.796 89.8 469.37 90.7333 467.556 92.6C465.796 94.4133 464.916 97.0533 464.916 100.52V125H453.716V100.52C453.716 97.0533 452.836 94.4133 451.076 92.6C449.316 90.7333 446.916 89.8 443.876 89.8C440.783 89.8 438.33 90.7333 436.516 92.6C434.756 94.4133 433.876 97.0533 433.876 100.52V125H422.676V80.68H433.876V86.04C435.316 84.1733 437.156 82.7067 439.396 81.64C441.69 80.5733 444.196 80.04 446.916 80.04C450.383 80.04 453.476 80.7867 456.196 82.28C458.916 83.72 461.023 85.8 462.516 88.52C463.956 85.96 466.036 83.9067 468.756 82.36C471.53 80.8133 474.516 80.04 477.716 80.04ZM547.704 101.88C547.704 103.48 547.598 104.92 547.384 106.2H514.984C515.251 109.4 516.371 111.907 518.344 113.72C520.318 115.533 522.744 116.44 525.624 116.44C529.784 116.44 532.744 114.653 534.504 111.08H546.584C545.304 115.347 542.851 118.867 539.224 121.64C535.598 124.36 531.144 125.72 525.864 125.72C521.598 125.72 517.758 124.787 514.344 122.92C510.984 121 508.344 118.307 506.424 114.84C504.558 111.373 503.624 107.373 503.624 102.84C503.624 98.2533 504.558 94.2267 506.424 90.76C508.291 87.2933 510.904 84.6267 514.264 82.76C517.624 80.8933 521.491 79.96 525.864 79.96C530.078 79.96 533.838 80.8667 537.144 82.68C540.504 84.4933 543.091 87.08 544.904 90.44C546.771 93.7467 547.704 97.56 547.704 101.88ZM536.104 98.68C536.051 95.8 535.011 93.5067 532.984 91.8C530.958 90.04 528.478 89.16 525.544 89.16C522.771 89.16 520.424 90.0133 518.504 91.72C516.638 93.3733 515.491 95.6933 515.064 98.68H536.104Z" fill="#FF4392"/>
</svg>
